<mxfile host="app.diagrams.net" modified="2024-08-14T07:09:32.306Z" agent="Mozilla/5.0 (Windows NT 10.0; Win64; x64) AppleWebKit/537.36 (KHTML, like Gecko) Chrome/127.0.0.0 Safari/537.36" version="23.1.4" etag="y3VdXz_0mAAqivqIbwhA" type="github">
  <diagram name="Page-1" id="_WMupIrwXp784-ITheUF">
    <mxGraphModel>
      <root>
        <mxCell id="0" />
        <mxCell id="1" parent="0" />
      </root>
    </mxGraphModel>
  </diagram>
</mxfile>
